<svg width="16" height="16" viewBox="0 0 16 16" fill="none" xmlns="http://www.w3.org/2000/svg">
<path fill-rule="evenodd" clip-rule="evenodd" d="M15 8C15 11.866 11.866 15 8 15C4.134 15 1 11.866 1 8C1 4.134 4.134 1 8 1C11.866 1 15 4.134 15 8ZM16 8C16 12.4183 12.4183 16 8 16C3.58172 16 0 12.4183 0 8C0 3.58172 3.58172 0 8 0C12.4183 0 16 3.58172 16 8ZM7.45468 9.7918H8.4332L8.51524 3.66876H7.37852L7.45468 9.7918ZM7.4957 11.2156C7.39024 11.3328 7.3375 11.4793 7.3375 11.6551C7.3375 11.8309 7.39024 11.9773 7.4957 12.0945C7.60508 12.2078 7.76524 12.2645 7.97618 12.2645C8.1871 12.2645 8.34726 12.2078 8.45664 12.0945C8.56602 11.9773 8.6207 11.8309 8.6207 11.6551C8.6207 11.4793 8.56602 11.3328 8.45664 11.2156C8.34726 11.0945 8.1871 11.034 7.97618 11.034C7.76524 11.034 7.60508 11.0945 7.4957 11.2156Z" fill="#F22837"/>
</svg>
