<svg width="23" height="12" viewBox="0 0 23 12" fill="none" xmlns="http://www.w3.org/2000/svg">
<path fill-rule="evenodd" clip-rule="evenodd" d="M14 0.288809C16.5996 0.888907 19.5 2.38891 22.4004 5.38891L22.9004 5.88891L22.5 6.38891L22.4004 6.48876C22.4004 6.54662 22.333 6.60448 22.2578 6.68163C22.2021 6.73778 22.1416 6.80443 22.0996 6.88891C21.9688 7.02001 21.7988 7.1704 21.6084 7.33983C21.3623 7.55785 21.0811 7.80761 20.7998 8.08886C19.7002 9.08886 18.0996 10.189 16.0996 10.9888C15.0996 11.3889 14 11.689 12.7998 11.7888C12.5 11.8889 12.2998 11.8889 12 11.8889H11.9004H11.5C11.2002 11.7888 11 11.7888 10.7002 11.7888C10.0996 11.689 9.59961 11.5889 9 11.4888C7.90039 11.2888 6.7998 10.8889 5.59961 10.2888C3.90039 9.38891 2.2002 8.18896 0.5 6.38891L0 5.88891L0.400391 5.38891L0.5 5.28881L0.900391 4.88891C1.2002 4.58886 1.59961 4.18896 2.2002 3.78881C3.2998 2.78881 4.90039 1.68896 6.90039 0.888907C8.90039 0.0888581 11.2998 -0.311044 14 0.288809ZM3.09961 4.88891C2.59961 5.28881 2.2998 5.58886 2 5.88891C2.50586 6.35253 2.99414 6.78075 3.47168 7.17333C4.12793 7.71191 4.76367 8.18383 5.40039 8.58886C4.7998 7.58886 4.5 6.48876 4.5 5.28881C4.5 4.85326 4.55273 4.47045 4.62012 4.1018C4.64551 3.96288 4.67285 3.82592 4.7002 3.68896C4.29492 3.95898 3.88965 4.22899 3.5459 4.49926C3.38086 4.62914 3.22949 4.75902 3.09961 4.88891ZM11.7002 10.2888H11.7998C14.7998 10.189 17 7.88891 17 5.18896C17 4.28881 16.7998 3.38891 16.0996 2.58886C15.4834 2.31469 14.9141 2.08764 14.3262 1.90746C14.0566 1.8247 13.7832 1.75194 13.5 1.68896C11.2002 1.18896 9.09961 1.48876 7.2998 2.18896C7.2002 2.28881 7 2.28881 6.90039 2.38891C6.2998 3.18896 6 4.08886 6 5.18896C6 7.88891 8.2998 10.189 11.2998 10.2888H11.5H11.7002ZM17.7002 8.48876C18.5 7.98876 19.2002 7.48876 19.7002 6.98876C20.2002 6.58886 20.5996 6.18896 20.9004 5.98876C20.0996 5.18896 19.2998 4.48876 18.5 3.98876C18.5 4.18896 18.5254 4.41405 18.5508 4.63915C18.5752 4.864 18.5996 5.08886 18.5996 5.28881C18.5996 6.48876 18.2998 7.48876 17.7002 8.48876ZM9.2002 5.08886C9.2002 3.78881 10.2002 2.78881 11.5 2.78881C12.7998 2.78881 13.7998 3.78881 13.7998 5.08886C13.7998 6.38891 12.7998 7.38891 11.5 7.38891C10.2002 7.38891 9.2002 6.38891 9.2002 5.08886Z" fill="#4B4B4B"/>
</svg>
