<svg width="13" height="13" viewBox="0 0 13 13" fill="none" xmlns="http://www.w3.org/2000/svg">
<path fill-rule="evenodd" clip-rule="evenodd" d="M12.3272 0.227865C12.0235 -0.075955 11.531 -0.075955 11.2273 0.227865L6.2773 5.17785L1.32776 0.228245C1.024 -0.0755756 0.531559 -0.0755756 0.22781 0.228245C-0.0759368 0.532063 -0.0759368 1.02425 0.22781 1.32808L5.17743 6.27767L0.22781 11.2273C-0.0759368 11.5311 -0.0759368 12.0237 0.22781 12.3275C0.531559 12.6309 1.024 12.6309 1.32776 12.3275L6.27742 7.37749L11.2273 12.3275C11.531 12.6313 12.0235 12.6313 12.3272 12.3275C12.6309 12.0237 12.6309 11.5315 12.3272 11.2276L7.37728 6.27767L12.3272 1.32769C12.6309 1.02425 12.6309 0.531684 12.3272 0.227865Z" fill="#4B4B4B"/>
</svg>
