<svg width="23" height="20" viewBox="0 0 23 20" fill="none" xmlns="http://www.w3.org/2000/svg">
<path d="M11.9 14.4001C11.7 14.4001 11.7 14.4001 11.6 14.4001H11.5C10.1 14.4001 8.8 13.9001 7.8 12.9001C6.7 11.9001 6.2 10.6001 6.2 9.3001C6.2 8.8001 6.3 8.4001 6.4 8.0001L4.4 6.1001C2 7.6001 0.5 9.4001 0.4 9.5001L0 10.0001L0.5 10.5001C3.8 13.8001 7.2 15.6001 10.7 15.9001C11 15.9001 11.2 16.0001 11.5 16.0001H11.9H12C12.3 16.0001 12.5 16.0001 12.8 15.9001C13.2 15.9001 13.6 15.8001 14 15.7001L12.6 14.3001C12.4 14.4001 12.1 14.4001 11.9 14.4001ZM2 10.0001C2.5 9.5001 3.4 8.6001 4.7 7.8001C4.6 8.2001 4.5 8.8001 4.5 9.3001C4.5 10.5001 4.8 11.6001 5.4 12.6001C4.3 11.9001 3.2 11.0001 2 10.0001Z" fill="#4B4B4B"/>
<path d="M22.5 9.5C18.8 5.7 14.9 3.8 10.9 4C9.6 4.1 8.4 4.3 7.3 4.7L2.6 0L1.5 1.1L6.9 6.5L9.5 9L11.8 11.3L20.4 19.9L21.5 18.8L17.2 14.5C20.4 12.9 22.4 10.5 22.5 10.4L22.9 9.9L22.5 9.5ZM15.5 12.9L13.2 10.7C13.6 10.3 13.8 9.7 13.8 9.1C13.8 7.9 12.8 6.9 11.6 6.9C11 6.9 10.4 7.2 10 7.6L8.5 5.9C9.3 5.7 10.1 5.6 10.9 5.5C12.7 5.4 14.5 5.8 16.3 6.7C16.5 7 16.6 7.3 16.8 7.6C17 8.1 17.1 8.7 17.1 9.3C17.1 10.7 16.5 11.9 15.5 12.9ZM17.8 12.5C18.4 11.5 18.7 10.4 18.7 9.3C18.7 8.9 18.7 8.4 18.6 8C19.4 8.6 20.2 9.2 21 10C20.3 10.6 19.2 11.6 17.8 12.5Z" fill="#4B4B4B"/>
</svg>
